<?xml version="1.0" standalone="no"?>
<!DOCTYPE svg PUBLIC "-//W3C//DTD SVG 20010904//EN"
 "http://www.w3.org/TR/2001/REC-SVG-20010904/DTD/svg10.dtd">
<svg version="1.0" xmlns="http://www.w3.org/2000/svg"
 width="512.000000pt" height="512.000000pt" viewBox="0 0 512.000000 512.000000"
 preserveAspectRatio="xMidYMid meet">
<metadata>
Created by potrace 1.14, written by Peter Selinger 2001-2017
</metadata>
<g transform="translate(0.000000,512.000000) scale(0.100000,-0.100000)"
fill="#000000" stroke="none">
<path d="M1505 5104 c-526 -79 -969 -367 -1244 -812 -128 -206 -207 -422 -244
-672 -28 -181 -9 -513 38 -675 10 -31 18 -63 19 -69 5 -25 36 -117 43 -129 4
-6 8 -16 9 -22 3 -20 94 -202 119 -238 14 -21 25 -41 25 -45 0 -12 138 -192
188 -245 26 -27 67 -68 91 -91 24 -22 53 -50 65 -61 28 -27 148 -114 216 -157
170 -107 462 -215 632 -233 29 -4 60 -9 68 -12 8 -3 85 -7 170 -10 310 -10
582 53 861 199 65 34 157 90 204 125 47 35 89 63 93 63 4 0 69 -61 145 -135
l137 -134 -33 -44 c-30 -40 -35 -57 -28 -113 2 -23 62 -94 230 -273 58 -62
115 -123 126 -135 36 -40 209 -227 244 -265 18 -20 61 -66 95 -102 33 -36 104
-112 156 -169 83 -91 136 -148 230 -250 14 -15 66 -71 115 -126 169 -184 212
-219 310 -252 57 -19 179 -22 232 -6 138 42 254 158 288 289 13 52 13 154 0
206 -26 99 -55 135 -244 309 -63 58 -124 114 -136 125 -11 11 -48 45 -81 75
-32 30 -115 107 -184 171 -69 64 -137 127 -151 140 -38 35 -242 223 -319 295
-36 34 -77 72 -91 85 -15 13 -75 70 -135 125 -181 169 -198 183 -231 199 -40
19 -76 12 -124 -25 l-36 -28 -136 136 c-76 76 -137 141 -137 145 0 5 20 34 44
65 127 166 230 380 289 602 44 168 52 231 51 445 -1 194 -11 287 -50 435 -131
503 -471 917 -934 1137 -78 37 -213 90 -250 98 -8 2 -49 12 -90 23 -41 11 -97
23 -123 27 -27 3 -59 9 -70 11 -55 12 -377 11 -462 -2z"/>
</g>
</svg>
